<svg xmlns="http://www.w3.org/2000/svg" width="1400" height="1150" viewBox="0 0 1400 1150"><rect width="1400" height="1150" fill="#101411"/>
<text x="70" y="60" fill="#e9e1d2" font-family="Arial,sans-serif" font-size="30" text-anchor="start">ALBURY — CURRENT GARDEN PLAN</text>
<text x="70" y="94" fill="#e9e1d2" font-family="Arial,sans-serif" font-size="16" text-anchor="start">100 × 131 FT · 13,100 SQ FT · APPROXIMATELY 0.3 ACRE INCLUDING TERRACE</text>
<text x="70" y="123" fill="#a0b2a4" font-family="Arial,sans-serif" font-size="13" text-anchor="start">Garden dimensions only. Full plot acreage and house footprint are not represented.</text>
<rect x="350" y="184" width="600" height="786" fill="#223828" stroke="#8c9885"/>
<rect x="350" y="790" width="600" height="180" fill="#b8ac98" stroke="#8c9885"/>
<rect x="446" y="400" width="408" height="390" fill="#416442" stroke="#8c9885"/>
<rect x="422" y="400" width="24" height="390" fill="#8c8572" stroke="#8c9885"/>
<rect x="854" y="400" width="24" height="390" fill="#8c8572" stroke="#8c9885"/>
<rect x="350" y="184" width="600" height="216" fill="#1c3226" stroke="#8c9885"/>
<path d="M440 814L860 814" stroke="#eee2ce" stroke-width="2" stroke-dasharray=""/>
<path d="M440 806.02L860 806.02" stroke="#eee2ce" stroke-width="2" stroke-dasharray=""/>
<path d="M440 798.04L860 798.04" stroke="#eee2ce" stroke-width="2" stroke-dasharray=""/>
<path d="M440 790L860 790" stroke="#eee2ce" stroke-width="2" stroke-dasharray=""/>
<text x="650" y="808" fill="#e9e1d2" font-family="Arial,sans-serif" font-size="10" text-anchor="middle">STEPS WITHIN 30 FT TERRACE ENVELOPE</text>
<rect x="608" y="814" width="84" height="156" fill="#cdc1ad" stroke="#8c9885"/>
<text x="650" y="910" fill="#e9e1d2" font-family="Arial,sans-serif" font-size="11" text-anchor="middle">CLEAR</text>
<text x="650" y="928" fill="#e9e1d2" font-family="Arial,sans-serif" font-size="11" text-anchor="middle">14 FT</text>
<rect x="380" y="922" width="96" height="18" fill="#574537" stroke="#8c9885"/>
<rect x="380" y="838" width="96" height="18" fill="#574537" stroke="#8c9885"/>
<circle cx="512" cy="934" r="10.8" fill="#8a7a63" stroke="#78997e"/>
<circle cx="548" cy="934" r="10.8" fill="#8a7a63" stroke="#78997e"/>
<circle cx="512" cy="850" r="10.8" fill="#8a7a63" stroke="#78997e"/>
<circle cx="548" cy="850" r="10.8" fill="#8a7a63" stroke="#78997e"/>
<rect x="422" y="880" width="84" height="24" fill="#73665b" stroke="#8c9885"/>
<text x="476" y="826" fill="#e9e1d2" font-family="Arial,sans-serif" font-size="11" text-anchor="middle">WEST LOUNGE · 12</text>
<rect x="740" y="868" width="150" height="42" fill="#574537" stroke="#8c9885"/>
<rect x="746" y="916" width="12" height="12" fill="#6b624c" stroke="#8c9885"/>
<rect x="746" y="850" width="12" height="12" fill="#6b624c" stroke="#8c9885"/>
<rect x="770" y="916" width="12" height="12" fill="#6b624c" stroke="#8c9885"/>
<rect x="770" y="850" width="12" height="12" fill="#6b624c" stroke="#8c9885"/>
<rect x="794" y="916" width="12" height="12" fill="#6b624c" stroke="#8c9885"/>
<rect x="794" y="850" width="12" height="12" fill="#6b624c" stroke="#8c9885"/>
<rect x="818" y="916" width="12" height="12" fill="#6b624c" stroke="#8c9885"/>
<rect x="818" y="850" width="12" height="12" fill="#6b624c" stroke="#8c9885"/>
<rect x="842" y="916" width="12" height="12" fill="#6b624c" stroke="#8c9885"/>
<rect x="842" y="850" width="12" height="12" fill="#6b624c" stroke="#8c9885"/>
<rect x="866" y="916" width="12" height="12" fill="#6b624c" stroke="#8c9885"/>
<rect x="866" y="850" width="12" height="12" fill="#6b624c" stroke="#8c9885"/>
<rect x="722" y="886" width="12" height="12" fill="#6b624c" stroke="#8c9885"/>
<rect x="896" y="886" width="12" height="12" fill="#6b624c" stroke="#8c9885"/>
<text x="818" y="826" fill="#e9e1d2" font-family="Arial,sans-serif" font-size="11" text-anchor="middle">EAST DINING · 14</text>
<circle cx="482" cy="886" r="66" fill="none" stroke="#ddd0b8" stroke-width="2" stroke-dasharray="5 4"/>
<circle cx="818" cy="886" r="66" fill="none" stroke="#ddd0b8" stroke-width="2" stroke-dasharray="5 4"/>
<text x="650" y="622" fill="#e9e1d2" font-family="Arial,sans-serif" font-size="21" text-anchor="middle">OPEN CENTRAL LAWN</text>
<text x="650" y="652" fill="#e9e1d2" font-family="Arial,sans-serif" font-size="16" text-anchor="middle">68 × 65 FT</text>
<circle cx="914" cy="766" r="18.6" fill="#456b4d" stroke="#78997e"/>
<circle cx="914" cy="718" r="18.6" fill="#456b4d" stroke="#78997e"/>
<circle cx="914" cy="670" r="18.6" fill="#456b4d" stroke="#78997e"/>
<circle cx="914" cy="622" r="18.6" fill="#456b4d" stroke="#78997e"/>
<circle cx="914" cy="574" r="18.6" fill="#456b4d" stroke="#78997e"/>
<circle cx="914" cy="526" r="18.6" fill="#456b4d" stroke="#78997e"/>
<circle cx="914" cy="478" r="18.6" fill="#456b4d" stroke="#78997e"/>
<circle cx="914" cy="430" r="18.6" fill="#456b4d" stroke="#78997e"/>
<circle cx="674" cy="322" r="36" fill="#345540" stroke="#78997e"/>
<circle cx="740" cy="262" r="36" fill="#345540" stroke="#78997e"/>
<circle cx="818" cy="322" r="36" fill="#345540" stroke="#78997e"/>
<circle cx="878" cy="244" r="36" fill="#345540" stroke="#78997e"/>
<rect x="398" y="232" width="192" height="144" fill="#514b3c" stroke="#8c9885"/>
<rect x="416" y="250" width="120" height="18" fill="#b6aa96" stroke="#8c9885"/>
<rect x="416" y="352" width="120" height="12" fill="#b6aa96" stroke="#8c9885"/>
<circle cx="422" cy="322" r="9.600000000000001" fill="#a99a85" stroke="#78997e"/>
<circle cx="458" cy="322" r="9.600000000000001" fill="#a99a85" stroke="#78997e"/>
<circle cx="518" cy="322" r="9.600000000000001" fill="#a99a85" stroke="#78997e"/>
<circle cx="560" cy="292" r="9.600000000000001" fill="#a99a85" stroke="#78997e"/>
<rect x="470" y="298" width="30" height="18" fill="#877f71" stroke="#8c9885"/>
<rect x="518" y="280" width="30" height="18" fill="#877f71" stroke="#8c9885"/>
<text x="494" y="220" fill="#e9e1d2" font-family="Arial,sans-serif" font-size="11" text-anchor="middle">NW SALON · 32 × 24 FT · TEN</text>
<text x="788" y="376" fill="#e9e1d2" font-family="Arial,sans-serif" font-size="11" text-anchor="middle">FAR GARDEN · 36 FT · DEEP SOIL</text>
<rect x="398" y="514" width="24" height="24" fill="#beaf92" stroke="#8c9885"/>
<circle cx="410" cy="526" r="6" fill="#987441" stroke="#78997e"/>
<rect x="884" y="502" width="12" height="48" fill="#92774e" stroke="#8c9885"/>
<path d="M446 610L854 610" stroke="#d2a863" stroke-width="2" stroke-dasharray="7 5"/>
<text x="650" y="599.2" fill="#e9e1d2" font-family="Arial,sans-serif" font-size="10" text-anchor="middle">60 FT BASEMENT REACH</text>
<path d="M446 460L854 460" stroke="#d2a863" stroke-width="2" stroke-dasharray="7 5"/>
<text x="650" y="449.20000000000005" fill="#e9e1d2" font-family="Arial,sans-serif" font-size="10" text-anchor="middle">85 FT BASEMENT REACH</text>
<path d="M320 970L320 184" stroke="#c69857" stroke-width="2" stroke-dasharray=""/>
<text x="300" y="577.0" fill="#e9e1d2" font-family="Arial,sans-serif" font-size="15" text-anchor="end">131 FT</text>
<path d="M350 1024L950 1024" stroke="#c69857" stroke-width="2" stroke-dasharray=""/>
<text x="650" y="1048" fill="#e9e1d2" font-family="Arial,sans-serif" font-size="16" text-anchor="middle">100 FT / 30.5 M</text>
<text x="650" y="158" fill="#e9e1d2" font-family="Arial,sans-serif" font-size="14" text-anchor="middle">N ↑  DUCHESS OF BEDFORD WALK / MEWS</text>
<rect x="350" y="970" width="600" height="42" fill="#292b25" stroke="#8c9885"/>
<text x="650" y="1000" fill="#e9e1d2" font-family="Arial,sans-serif" font-size="13" text-anchor="middle">ALBURY 30–32 · GARDEN ELEVATION / SOUTH</text>
<text x="995" y="240" fill="#e9e1d2" font-family="Arial,sans-serif" font-size="15" text-anchor="start">EAST: THE CEDARS / NO. 34</text>
<text x="995" y="269" fill="#e9e1d2" font-family="Arial,sans-serif" font-size="13" text-anchor="start">Separate detached villa</text>
<text x="995" y="292" fill="#e9e1d2" font-family="Arial,sans-serif" font-size="12" text-anchor="start">0.7-acre garden (not shown to scale)</text>
<text x="995" y="315" fill="#e9e1d2" font-family="Arial,sans-serif" font-size="12" text-anchor="start">No connection at story opening</text>
<text x="995" y="405" fill="#e9e1d2" font-family="Arial,sans-serif" font-size="13" text-anchor="start">FIXED ELEMENTS</text>
<text x="995" y="432" fill="#e9e1d2" font-family="Arial,sans-serif" font-size="13" text-anchor="start">One west Hepworth: x10 / y74</text>
<text x="995" y="459" fill="#e9e1d2" font-family="Arial,sans-serif" font-size="13" text-anchor="start">East bench directly opposite</text>
<text x="995" y="486" fill="#e9e1d2" font-family="Arial,sans-serif" font-size="13" text-anchor="start">Eight pleached limes: east only</text>
<text x="995" y="513" fill="#e9e1d2" font-family="Arial,sans-serif" font-size="13" text-anchor="start">Two taupe cantilever parasols</text>
<text x="995" y="540" fill="#e9e1d2" font-family="Arial,sans-serif" font-size="13" text-anchor="start">Marquee: 48 × 52 ft on lawn</text>
<text x="995" y="567" fill="#e9e1d2" font-family="Arial,sans-serif" font-size="13" text-anchor="start">Clearances: sides 10; south 7; north 6</text>
<text x="995" y="594" fill="#e9e1d2" font-family="Arial,sans-serif" font-size="13" text-anchor="start">Upper basement reaches 85 ft</text>
<text x="995" y="621" fill="#e9e1d2" font-family="Arial,sans-serif" font-size="13" text-anchor="start">Lower basement reaches 60 ft</text>
<text x="995" y="648" fill="#e9e1d2" font-family="Arial,sans-serif" font-size="13" text-anchor="start">Mature trees: deep soil / designed pits</text>
<text x="995" y="675" fill="#e9e1d2" font-family="Arial,sans-serif" font-size="13" text-anchor="start">Basement reach lines are not surveys</text>
<text x="70" y="1088" fill="#a0b2a4" font-family="Arial,sans-serif" font-size="13" text-anchor="start">Plan uses equal scales on both axes. Steps are included in the terrace envelope; no extra depth is added.</text>
<text x="70" y="1115" fill="#a0b2a4" font-family="Arial,sans-serif" font-size="13" text-anchor="start">Room elevations, exact structural footprints and full-site boundary geometry require separate drawings.</text>
</svg>